<?xml version="1.0" standalone="no"?>
<!DOCTYPE svg PUBLIC "-//W3C//DTD SVG 20010904//EN"
 "http://www.w3.org/TR/2001/REC-SVG-20010904/DTD/svg10.dtd">
<svg version="1.0" xmlns="http://www.w3.org/2000/svg"
 width="428.000000pt" height="428.000000pt" viewBox="0 0 428.000000 428.000000"
 preserveAspectRatio="xMidYMid meet">
<metadata>
Created by potrace 1.14, written by Peter Selinger 2001-2017
</metadata>
<g transform="translate(0.000000,428.000000) scale(0.100000,-0.100000)"
fill="#000000" stroke="none">
<path d="M2169 4090 c-44 -13 -140 -69 -191 -111 -67 -57 -161 -193 -175 -254
-9 -39 -11 -50 -14 -50 -10 0 -14 -170 -5 -220 7 -41 33 -102 47 -111 44 -27
85 0 108 71 17 55 89 234 107 268 9 15 12 27 9 27 -4 0 4 17 17 38 12 20 21
38 20 40 -4 4 94 178 130 229 l28 42 -22 20 c-12 12 -24 21 -27 20 -3 0 -18
-4 -32 -9z m-162 -271 c-18 -41 -54 -122 -78 -181 -24 -59 -49 -108 -55 -108
-12 0 -12 79 0 99 5 7 5 15 2 18 -3 3 -1 12 6 20 6 7 8 16 5 19 -9 9 58 129
100 180 52 65 62 42 20 -47z"/>
<path d="M3029 3669 c-6 -3 -22 -5 -37 -3 -14 1 -31 0 -37 -4 -5 -4 -21 -8
-35 -9 -24 -2 -65 -10 -65 -13 0 -1 -9 -3 -19 -5 -47 -9 -188 -48 -226 -62 -8
-3 -19 -7 -25 -9 -5 -1 -23 -8 -40 -15 -16 -7 -32 -13 -35 -14 -30 -7 -90 -31
-107 -43 -13 -8 -23 -11 -23 -7 0 4 -11 0 -25 -9 -14 -9 -25 -14 -25 -11 0 3
-13 -1 -30 -10 -16 -8 -32 -15 -35 -15 -3 0 -19 -7 -35 -15 -16 -8 -31 -15
-32 -15 -2 1 -36 -15 -76 -35 -40 -19 -76 -35 -81 -35 -19 0 -89 -60 -87 -75
7 -48 45 -49 136 -4 41 21 80 39 85 39 6 1 28 12 50 23 22 11 45 22 50 23 10
2 134 53 185 76 14 6 30 12 35 14 6 1 24 8 40 15 17 7 32 13 35 14 12 3 86 27
100 32 22 9 21 9 63 17 20 5 40 12 42 17 3 4 12 6 19 3 8 -3 17 0 21 5 3 6 11
9 16 6 5 -4 15 -3 22 2 6 4 21 8 32 9 11 1 34 5 50 9 17 4 44 8 60 9 17 1 35
4 40 7 24 12 221 -3 253 -20 12 -6 22 -9 22 -6 0 3 20 -8 44 -24 46 -32 101
-111 111 -158 3 -16 8 -39 11 -53 9 -44 11 -175 3 -185 -5 -6 -8 -20 -8 -30 0
-19 -2 -32 -16 -99 -3 -16 -11 -39 -17 -50 -6 -12 -10 -22 -9 -24 8 -8 -85
-207 -139 -297 -29 -48 -33 -88 -14 -134 9 -22 21 -42 28 -43 34 -4 42 -4 57
3 9 5 19 5 23 2 4 -4 16 -8 28 -10 52 -8 42 -52 -18 -81 -34 -17 -44 -27 -44
-46 0 -79 139 -38 178 53 18 43 17 76 -4 109 -18 28 -75 55 -122 58 -19 1 -36
5 -39 8 -8 7 20 71 68 156 34 61 88 186 94 220 2 8 4 17 6 20 1 3 3 10 4 15 2
6 4 12 5 15 5 13 12 48 15 75 2 17 4 30 5 30 2 0 3 11 4 25 1 14 4 30 7 35 7
12 3 161 -6 195 -27 106 -39 134 -78 183 -70 86 -160 136 -257 142 -19 2 -35
4 -35 5 0 6 -157 5 -166 -1z"/>
<path d="M1379 3389 c-7 -4 -23 -5 -36 -3 -13 3 -29 1 -36 -3 -7 -4 -19 -8
-27 -8 -28 -1 -125 -28 -137 -38 -7 -5 -13 -6 -13 -2 0 4 -11 0 -25 -9 -14 -9
-25 -14 -25 -11 0 13 -138 -70 -197 -118 -140 -112 -222 -248 -249 -412 -8
-44 -8 -195 -1 -229 7 -32 34 -66 52 -66 20 0 37 28 36 57 -8 179 -1 248 36
343 46 115 119 202 235 277 56 36 123 72 148 78 3 1 25 8 50 15 25 7 48 14 53
16 4 1 8 2 10 4 3 2 27 6 87 15 56 8 144 8 190 0 19 -3 51 -7 70 -10 45 -5 92
-15 101 -21 4 -2 10 0 14 6 4 6 10 8 15 5 5 -3 14 3 19 14 8 15 6 24 -8 42
-17 22 -29 26 -81 34 -14 1 -25 4 -25 5 0 4 -44 11 -90 15 -27 2 -50 4 -50 6
0 5 -107 4 -116 -2z"/>
<path d="M2312 3038 c-7 -7 -12 -8 -12 -4 0 5 -11 1 -25 -8 -13 -9 -46 -28
-72 -42 -96 -53 -201 -127 -214 -151 -10 -18 -10 -29 -2 -41 16 -26 43 -22 93
13 52 37 183 115 221 131 32 14 37 11 77 -47 45 -67 128 -156 176 -188 33 -23
141 -70 161 -71 3 0 6 -1 8 -1 1 -1 13 -2 27 -3 14 -1 30 -4 35 -8 6 -3 24 -5
42 -3 26 1 40 -7 76 -44 41 -42 124 -161 113 -161 -3 0 2 -16 10 -35 8 -19 11
-35 8 -35 -4 0 -2 -6 3 -12 11 -15 11 -137 0 -155 -4 -7 -3 -21 2 -31 6 -11 8
-22 5 -25 -6 -6 26 -31 124 -98 56 -39 79 -62 104 -107 18 -31 31 -57 29 -57
-3 0 1 -10 8 -23 20 -38 29 -147 17 -214 -15 -93 -159 -246 -298 -319 -46 -24
-85 -44 -88 -44 -5 0 -74 -28 -115 -46 -11 -5 -31 -12 -45 -15 -40 -8 -55 -12
-55 -14 0 -1 -18 -4 -40 -5 -22 -2 -52 -6 -68 -9 -15 -3 -38 -7 -52 -9 -33 -5
-54 -24 -51 -45 3 -20 64 -54 80 -44 6 3 27 7 46 8 19 1 46 5 60 8 35 8 71 16
99 22 14 3 29 8 35 12 6 3 16 7 21 8 6 1 27 9 47 18 21 9 40 16 43 16 3 0 45
20 94 44 97 49 216 140 273 209 35 42 89 136 97 167 14 61 17 143 7 195 -9 45
-14 70 -16 70 -1 0 -3 7 -5 15 -6 34 -48 110 -81 149 -20 23 -66 62 -102 88
-77 53 -95 72 -84 87 10 13 10 116 1 131 -4 6 -5 19 -3 29 1 11 0 25 -4 30 -3
6 -7 17 -8 24 -5 29 -54 120 -93 172 -41 54 -41 55 -19 64 13 5 31 11 41 12
32 7 76 34 87 53 10 20 4 50 -11 52 -5 1 -15 2 -21 3 -7 1 -36 -6 -64 -16 -73
-25 -110 -31 -179 -30 -71 1 -106 5 -124 16 -7 4 -15 6 -18 3 -2 -3 -36 10
-74 30 -72 36 -121 84 -189 183 -63 92 -110 126 -138 98z"/>
<path d="M1842 2787 c-13 -16 -62 -137 -56 -137 13 0 -85 -126 -121 -155 -36
-30 -186 -116 -210 -122 -10 -2 -39 -9 -77 -19 -13 -3 -32 -7 -43 -8 -11 -2
-20 -5 -20 -6 0 -3 -54 -9 -105 -13 -19 -1 -39 -5 -45 -8 -5 -4 -17 -5 -25 -3
-8 1 -26 5 -39 8 -28 6 -61 -18 -61 -44 0 -37 30 -48 125 -45 50 1 90 3 90 4
0 2 9 4 20 6 11 1 38 6 60 9 22 4 49 8 61 10 11 2 26 6 32 10 7 4 22 9 34 11
13 3 64 25 115 51 173 86 279 213 333 396 5 17 4 33 -3 42 -15 21 -53 28 -65
13z"/>
<path d="M635 2315 c-85 -46 -136 -112 -148 -190 -1 -11 -5 -24 -8 -30 -9 -15
0 -210 11 -235 1 -3 2 -9 1 -13 -1 -4 6 -21 14 -37 9 -16 15 -32 14 -35 -3
-19 51 -104 93 -146 52 -52 101 -82 158 -95 44 -10 112 -13 125 -5 6 3 12 6
15 6 3 0 19 6 37 14 32 13 32 13 130 -69 54 -45 134 -106 178 -135 86 -57 275
-160 275 -149 0 4 6 1 13 -5 13 -10 84 -38 117 -46 8 -2 44 -13 80 -25 36 -12
74 -24 85 -25 11 -2 20 -4 20 -5 0 -3 38 -10 65 -13 14 -2 30 -5 35 -8 6 -3
26 -6 46 -8 38 -2 59 14 55 41 -2 19 -27 51 -33 44 -3 -2 -21 1 -41 8 -21 7
-44 12 -52 11 -8 -1 -21 3 -28 8 -7 6 -15 7 -19 4 -3 -4 -12 -2 -20 5 -7 6
-16 8 -20 5 -3 -4 -11 -3 -17 2 -7 6 -23 12 -37 14 -14 3 -48 13 -75 22 -27 9
-53 18 -59 19 -5 1 -19 7 -30 13 -11 6 -23 12 -27 12 -20 3 -122 53 -200 98
-96 56 -256 174 -303 222 -29 31 -29 32 -13 59 55 87 67 147 35 179 -16 16
-18 15 -41 -7 -14 -12 -24 -26 -21 -29 9 -15 -66 -116 -105 -142 -41 -28 -54
-31 -110 -31 -87 0 -163 56 -215 161 -25 51 -30 64 -41 121 -7 37 -8 170 -1
208 14 81 93 145 182 147 51 2 100 -22 163 -79 28 -25 25 -25 51 -2 31 28 26
50 -21 91 -61 53 -122 78 -194 80 -50 1 -70 -4 -119 -30z"/>
<path d="M3338 2213 c-11 -13 -13 -25 -7 -41 9 -24 22 -32 63 -36 14 -1 29 -6
32 -9 4 -3 14 -2 23 2 9 5 20 8 25 8 5 -1 15 7 22 19 19 27 1 51 -46 59 -86
15 -97 15 -112 -2z"/>
<path d="M2805 2108 c-19 -15 -22 -26 -20 -60 7 -85 32 -139 69 -146 21 -4 69
25 61 38 -3 5 -1 11 5 15 6 4 7 12 3 18 -4 7 -8 23 -9 37 -1 14 -2 33 -3 42
-2 24 -47 75 -66 75 -9 0 -27 -9 -40 -19z"/>
<path d="M1665 2058 c-15 -18 -22 -36 -19 -51 3 -12 7 -39 9 -60 6 -67 53 -93
94 -52 22 22 15 151 -11 182 -15 19 -48 11 -73 -19z"/>
<path d="M858 2039 c-17 -22 -36 -39 -41 -39 -5 0 -22 11 -39 25 -32 27 -57
32 -76 13 -20 -20 -14 -40 25 -80 40 -41 40 -36 -7 -118 l-21 -35 27 -23 c30
-26 39 -22 83 39 31 42 37 43 76 15 59 -42 77 -48 94 -32 28 29 20 56 -25 89
-24 18 -45 37 -48 44 -3 6 8 31 24 55 26 38 27 45 16 63 -22 33 -54 27 -88
-16z"/>
<path d="M3421 2066 c-16 -19 -12 -35 32 -136 6 -14 11 -27 11 -30 2 -7 26
-71 39 -100 5 -14 11 -29 13 -35 1 -5 13 -36 27 -68 15 -31 27 -59 27 -62 1
-2 16 -37 34 -78 41 -94 42 -159 4 -232 -30 -58 -62 -90 -138 -137 -71 -45
-204 -100 -223 -92 -8 3 -18 1 -21 -4 -3 -5 -17 -8 -31 -6 -18 2 -30 -5 -42
-23 -17 -25 -16 -26 12 -48 16 -14 37 -21 49 -19 12 2 35 7 51 10 110 20 249
91 342 177 136 125 153 260 58 462 -23 51 -54 125 -53 128 1 1 -5 13 -12 27
-8 14 -15 28 -16 33 -1 4 -2 8 -4 10 -1 1 -3 9 -5 17 -5 27 -77 185 -91 200
-17 20 -49 23 -63 6z"/>
<path d="M2594 1815 c-11 -7 -20 -18 -20 -24 -1 -6 -3 -12 -4 -13 -1 -2 -3
-15 -4 -30 -2 -14 -8 -40 -15 -56 -11 -26 -17 -30 -39 -25 -15 3 -32 6 -38 7
-6 1 -33 16 -60 33 -54 35 -81 37 -101 7 -11 -17 -10 -23 2 -41 14 -20 96 -73
119 -77 6 -1 18 -6 25 -11 30 -18 99 -15 126 7 28 21 62 84 60 108 -1 8 2 20
5 25 6 8 6 49 1 77 -3 19 -39 27 -57 13z"/>
<path d="M499 1614 c-13 -14 -23 -29 -22 -32 2 -4 -5 -32 -14 -62 -32 -107
-34 -118 -37 -195 -3 -58 1 -77 20 -111 34 -58 128 -122 208 -141 42 -10 172
-9 206 1 19 5 37 10 40 11 3 1 19 5 35 10 38 10 75 43 75 67 0 31 -51 43 -92
21 -16 -7 -28 -11 -28 -9 0 3 -17 -1 -37 -8 -36 -12 -134 -13 -179 -3 -37 9
-118 54 -139 76 -23 27 -28 116 -9 174 7 20 11 37 7 37 -3 0 -1 6 5 13 13 15
25 69 26 116 1 23 -5 37 -20 47 -18 13 -23 11 -45 -12z"/>
<path d="M1200 1225 c-13 -14 -48 -37 -77 -51 -58 -29 -73 -43 -70 -64 5 -29
17 -38 49 -36 45 4 90 29 145 81 44 42 45 45 31 67 -21 32 -50 33 -78 3z"/>
<path d="M1303 1153 c-65 -76 -65 -77 -43 -101 26 -28 51 -19 99 34 45 48 59
87 41 109 -22 27 -46 16 -97 -42z"/>
<path d="M2183 1149 c-12 -4 -26 -17 -32 -27 -16 -29 20 -56 78 -60 89 -5 191
1 208 11 6 4 13 16 16 27 8 32 -33 58 -85 53 -49 -5 -79 -5 -129 0 -19 2 -45
0 -56 -4z"/>
<path d="M2966 1108 c-19 -27 -11 -43 50 -96 47 -42 66 -44 91 -13 18 23 18
24 -39 80 -58 56 -79 62 -102 29z"/>
<path d="M2832 1087 c-21 -27 -21 -36 -1 -61 32 -41 70 -57 99 -43 34 18 32
43 -6 77 -19 16 -38 30 -42 31 -4 0 -15 2 -24 4 -9 2 -21 -2 -26 -8z"/>
</g>
</svg>
